<svg width="16" height="18" viewBox="0 0 16 18" fill="none" xmlns="http://www.w3.org/2000/svg">
<path d="M13.1 12.5984C13.7771 12.5984 14.35 12.8458 14.8188 13.3406C15.2875 13.8093 15.5219 14.3692 15.5219 15.0203C15.5219 15.6973 15.2745 16.2833 14.7797 16.7781C14.3109 17.2468 13.751 17.4812 13.1 17.4812C12.449 17.4812 11.876 17.2468 11.3813 16.7781C10.9125 16.2833 10.6781 15.6973 10.6781 15.0203C10.6781 14.7598 10.6911 14.5776 10.7172 14.4734L4.81875 11.0359C4.32396 11.4786 3.75104 11.7 3.1 11.7C2.42292 11.7 1.83698 11.4526 1.34219 10.9578C0.847396 10.463 0.6 9.87703 0.6 9.19995C0.6 8.52287 0.847396 7.93693 1.34219 7.44214C1.83698 6.94735 2.42292 6.69995 3.1 6.69995C3.75104 6.69995 4.32396 6.92131 4.81875 7.36401L10.6781 3.96558C10.626 3.70516 10.6 3.50985 10.6 3.37964C10.6 2.70256 10.8474 2.11662 11.3422 1.62183C11.837 1.12703 12.4229 0.879639 13.1 0.879639C13.7771 0.879639 14.363 1.12703 14.8578 1.62183C15.3526 2.11662 15.6 2.70256 15.6 3.37964C15.6 4.05672 15.3526 4.64266 14.8578 5.13745C14.363 5.63224 13.7771 5.87964 13.1 5.87964C12.475 5.87964 11.9021 5.64526 11.3813 5.17651L5.52188 8.61401C5.57396 8.87443 5.6 9.06974 5.6 9.19995C5.6 9.33016 5.57396 9.52547 5.52188 9.78589L11.4594 13.2234C11.9281 12.8067 12.475 12.5984 13.1 12.5984Z" fill="#04111D"/>
</svg>
