<svg width="17" height="6" viewBox="0 0 17 6" fill="none" xmlns="http://www.w3.org/2000/svg">
<path d="M6.7073 1.59375C7.11355 1.1875 7.5823 0.984375 8.11355 0.984375C8.6448 0.984375 9.11355 1.1875 9.5198 1.59375C9.92605 2 10.1292 2.46875 10.1292 3C10.1292 3.53125 9.92605 4 9.5198 4.40625C9.11355 4.8125 8.6448 5.01562 8.11355 5.01562C7.5823 5.01562 7.11355 4.8125 6.7073 4.40625C6.30105 4 6.09793 3.53125 6.09793 3C6.09793 2.46875 6.30105 2 6.7073 1.59375ZM12.7073 1.59375C13.1136 1.1875 13.5823 0.984375 14.1136 0.984375C14.6448 0.984375 15.1136 1.1875 15.5198 1.59375C15.9261 2 16.1292 2.46875 16.1292 3C16.1292 3.53125 15.9261 4 15.5198 4.40625C15.1136 4.8125 14.6448 5.01562 14.1136 5.01562C13.5823 5.01562 13.1136 4.8125 12.7073 4.40625C12.3011 4 12.0979 3.53125 12.0979 3C12.0979 2.46875 12.3011 2 12.7073 1.59375ZM0.7073 1.59375C1.11355 1.1875 1.5823 0.984375 2.11355 0.984375C2.6448 0.984375 3.11355 1.1875 3.5198 1.59375C3.92605 2 4.12918 2.46875 4.12918 3C4.12918 3.53125 3.92605 4 3.5198 4.40625C3.11355 4.8125 2.6448 5.01562 2.11355 5.01562C1.5823 5.01562 1.11355 4.8125 0.7073 4.40625C0.30105 4 0.0979252 3.53125 0.0979252 3C0.0979252 2.46875 0.30105 2 0.7073 1.59375Z" fill="#04111D"/>
</svg>
