<svg width="18" height="18" viewBox="0 0 18 18" fill="none" xmlns="http://www.w3.org/2000/svg">
<path d="M9.45988 2.25L11.2932 5.91667C11.3765 6.08333 11.5432 6.25 11.7932 6.25L15.8765 6.83333C16.3765 6.91667 16.5432 7.5 16.2099 7.83333L13.2099 10.6667C13.0432 10.8333 12.9599 11 13.0432 11.1667L13.7099 15.25C13.7932 15.75 13.2932 16.1667 12.7932 15.9167L9.12654 14C8.95988 13.9167 8.70988 13.9167 8.54321 14L4.87654 15.9167C4.45988 16.1667 3.87654 15.75 3.95988 15.25L4.79321 11.3333C4.79321 11.1667 4.79321 10.9167 4.62654 10.8333L1.62654 8C1.29321 7.58333 1.45988 6.91667 1.95988 6.83333L6.04321 6.25C6.20988 6.25 6.37655 6.08333 6.54321 5.91667L8.37654 2.25C8.62654 1.83333 9.29321 1.83333 9.45988 2.25Z" stroke="#04111D" stroke-width="2.08333" stroke-miterlimit="10"/>
</svg>
