<?xml version="1.0" encoding="UTF-8"?>
<svg version="1.1" xmlns="http://www.w3.org/2000/svg" width="1200" height="970">
<path d="M0 0 C1.28704834 0.00499512 2.57409668 0.00999023 3.90014648 0.01513672 C13.48531616 0.19105591 21.09711674 1.31972075 29.8125 5.5 C30.84632812 5.93441406 31.88015625 6.36882813 32.9453125 6.81640625 C40.88458798 10.37994294 47.62533523 15.40059644 53.8125 21.5 C53.8125 22.16 53.8125 22.82 53.8125 23.5 C54.4725 23.5 55.1325 23.5 55.8125 23.5 C57.35454591 25.40559308 58.74969245 27.29073582 60.125 29.3125 C60.52799316 29.90200439 60.93098633 30.49150879 61.34619141 31.09887695 C64.82706202 36.31036971 67.57805518 41.63568632 69.8125 47.5 C70.10769531 48.2734375 70.40289063 49.046875 70.70703125 49.84375 C72.05642988 53.83212033 72.80694948 57.15343964 72.875 61.40234375 C72.95252617 65.80747288 73.30031432 69.31613934 74.8125 73.5 C79.05644367 76.88346949 83.54718942 78.6656559 88.58251953 80.59472656 C92.1717815 82.05180817 95.51104645 83.90078577 98.875 85.8125 C99.535 86.1852002 100.195 86.55790039 100.875 86.94189453 C139.68521116 109.33751296 168.33809892 146.08363015 180.43383789 189.16601562 C181.26128011 192.26983043 182.04927523 195.37980153 182.8125 198.5 C183.1535376 199.88711182 183.1535376 199.88711182 183.50146484 201.30224609 C199.86986127 271.92162281 173.02744396 347.13263128 141.8125 409.5 C141.30992676 410.51304199 140.80735352 411.52608398 140.28955078 412.56982422 C119.90626842 453.495148 93.66961753 492.09374942 64.8125 527.5 C63.74452345 528.81749096 62.67684074 530.13522014 61.609375 531.453125 C56.70996786 537.49671331 51.80599613 543.53374488 46.8125 549.5 C46.4825 548.51 46.1525 547.52 45.8125 546.5 C47.22448933 543.86448601 48.67897187 541.43002375 50.3125 538.9375 C50.77446777 538.2165918 51.23643555 537.49568359 51.71240234 536.75292969 C54.7016643 532.11682025 57.78764394 527.55628651 60.99731445 523.06958008 C67.23726614 514.23629273 72.98958216 505.1015882 78.625 495.875 C79.32323924 494.73484316 80.02164659 493.59478927 80.72021484 492.45483398 C82.106799 490.19146404 83.49197796 487.92725321 84.87646484 485.66259766 C86.60573373 482.8377617 88.34183292 480.01732951 90.08203125 477.19921875 C91.03389783 475.65367272 91.98572401 474.10810181 92.9375 472.5625 C93.3497583 471.89718262 93.7620166 471.23186523 94.18676758 470.54638672 C97.60533477 464.97647381 100.71257405 459.25191592 103.8125 453.5 C104.93479719 451.43354017 106.05719577 449.36713541 107.1796875 447.30078125 C116.81817645 429.56543072 116.81817645 429.56543072 125.8125 411.5 C126.31749023 410.44312988 126.82248047 409.38625977 127.34277344 408.29736328 C136.30800826 389.41309084 143.65284121 370.47493755 149.8125 350.5 C150.33875045 348.84860953 150.86594976 347.19752082 151.39453125 345.546875 C164.67062629 303.32131738 166.60236473 255.01682814 153.8125 212.5 C153.47089844 211.3553125 153.12929687 210.210625 152.77734375 209.03125 C151.86154544 206.15408609 150.87213651 203.32706112 149.8125 200.5 C149.29623047 199.11748047 149.29623047 199.11748047 148.76953125 197.70703125 C143.30207939 183.87978952 136.28679377 170.9830839 126.8125 159.5 C126.3175 158.89961914 125.8225 158.29923828 125.3125 157.68066406 C123.71847696 155.75748308 122.11297141 153.84481105 120.5 151.9375 C119.99621826 151.34106689 119.49243652 150.74463379 118.97338867 150.13012695 C116.44293377 147.19307482 113.9121208 144.80446867 110.8125 142.5 C110.8125 141.84 110.8125 141.18 110.8125 140.5 C110.235 140.231875 109.6575 139.96375 109.0625 139.6875 C106.75699957 138.47070811 104.79193808 137.19666121 102.8125 135.5 C102.8125 134.84 102.8125 134.18 102.8125 133.5 C102.2249292 133.21713135 101.6373584 132.9342627 101.03198242 132.64282227 C99.0134601 131.60347533 97.18111971 130.48251977 95.30078125 129.21484375 C85.43469552 122.65054615 75.38100326 116.85700102 64.8125 111.5 C62.50939139 113.68658228 60.6759203 115.99563853 58.8125 118.5625 C47.76212009 132.84657003 32.72157339 142.45202917 14.8125 145.5 C-7.79801814 147.01208917 -26.238252 145.04272632 -44.4609375 130.83203125 C-45.98717603 129.65454858 -47.58359071 128.56927286 -49.1875 127.5 C-49.1875 126.84 -49.1875 126.18 -49.1875 125.5 C-49.76886719 125.26925781 -50.35023438 125.03851563 -50.94921875 124.80078125 C-60.30546785 119.36337994 -67.11139912 103.74382472 -70.0625 93.75 C-70.26617188 92.95078125 -70.46984375 92.1515625 -70.6796875 91.328125 C-71.02698012 89.49650079 -71.02698012 89.49650079 -72.1875 88.5 C-112.33165989 88.62505969 -154.09938189 97.87995769 -193.1875 106.5 C-188.61964854 111.98412602 -188.61964854 111.98412602 -183.4375 116.875 C-174.75288934 124.23389869 -166.53008769 131.99737193 -158.5 140.0625 C-157.60216797 140.95646484 -156.70433594 141.85042969 -155.77929688 142.77148438 C-150.70703937 147.85117376 -145.82111911 153.01722161 -141.1875 158.5 C-140.73173584 159.03407471 -140.27597168 159.56814941 -139.80639648 160.1184082 C-138.61043414 161.52843564 -137.42967783 162.95132043 -136.25 164.375 C-135.47785156 165.30054688 -134.70570313 166.22609375 -133.91015625 167.1796875 C-132.1875 169.5 -132.1875 169.5 -132.1875 171.5 C-131.5275 171.5 -130.8675 171.5 -130.1875 171.5 C-128.83398438 173.00610352 -128.83398438 173.00610352 -127.28125 175.12890625 C-126.70745605 175.9087085 -126.13366211 176.68851074 -125.54248047 177.49194336 C-124.93033691 178.34022705 -124.31819336 179.18851074 -123.6875 180.0625 C-122.74028076 181.36489624 -122.74028076 181.36489624 -121.77392578 182.69360352 C-111.78839057 196.50012141 -102.73255811 210.75847757 -94.1875 225.5 C-93.69491699 226.34916992 -93.20233398 227.19833984 -92.69482422 228.07324219 C-45.29397321 310.55166126 -28.82262555 409.68518315 -53.1875 545.5 C-69.07081741 603.29301214 -96.39226655 656.07252188 -134.1875 702.5 C-134.83460938 703.32113281 -135.48171875 704.14226563 -136.1484375 704.98828125 C-145.7993254 717.09673726 -156.7109828 728.1009666 -167.625 739.0625 C-168.35775146 739.79992432 -169.09050293 740.53734863 -169.84545898 741.29711914 C-174.46392334 745.90195197 -179.23246336 750.26113376 -184.1875 754.5 C-185.20850758 755.38912286 -186.22935422 756.27843059 -187.25 757.16796875 C-210.99411833 777.53360216 -237.67519458 795.83741863 -266.38085938 808.46484375 C-267.46850586 808.96177734 -267.46850586 808.96177734 -268.578125 809.46875 C-269.24360352 809.76201172 -269.90908203 810.05527344 -270.59472656 810.35742188 C-272.38411892 811.37826567 -272.38411892 811.37826567 -272.65942383 813.46044922 C-273.1875 815.5 -273.1875 815.5 -274.94311523 816.89697266 C-275.70309814 817.3151123 -276.46308105 817.73325195 -277.24609375 818.1640625 C-278.09743896 818.64101563 -278.94878418 819.11796875 -279.82592773 819.609375 C-280.74962158 820.10953125 -281.67331543 820.6096875 -282.625 821.125 C-283.57640869 821.65351562 -284.52781738 822.18203125 -285.50805664 822.7265625 C-287.46454854 823.81185378 -289.42412922 824.89159498 -291.38671875 825.96582031 C-293.86973346 827.3259375 -296.34347744 828.70063794 -298.8125 830.0859375 C-303.2591436 832.5786618 -307.72210559 835.04106603 -312.1875 837.5 C-313.41726563 838.1796582 -313.41726563 838.1796582 -314.671875 838.87304688 C-357.13904665 862.32650758 -400.7800753 883.12279416 -445.68164062 901.47119141 C-448.06922673 902.45144158 -450.44971271 903.44694639 -452.828125 904.44921875 C-460.89148956 907.83767224 -469.00594441 910.93607862 -477.2734375 913.7890625 C-480.95810465 915.06233848 -484.62541532 916.37839444 -488.2890625 917.7109375 C-537.92541204 935.73480374 -588.57414302 950.10975201 -640.5 959.8125 C-641.8232579 960.06052872 -641.8232579 960.06052872 -643.17324829 960.31356812 C-656.13126129 962.72712099 -669.11929495 964.7801025 -682.1875 966.5 C-682.96640594 966.60275238 -683.74531189 966.70550476 -684.54782104 966.81137085 C-730.79711022 972.80061592 -780.05698138 973.92887375 -826.1875 966.5 C-827.97148193 966.21914551 -827.97148193 966.21914551 -829.79150391 965.93261719 C-837.31909351 964.70884227 -844.75831143 963.22025673 -852.1875 961.5 C-853.23341309 961.25942871 -854.27932617 961.01885742 -855.35693359 960.77099609 C-889.5536287 952.70059681 -922.9001794 938.72388008 -950.13671875 916.19140625 C-952.18207764 914.46070689 -952.18207764 914.46070689 -954.45703125 912.90234375 C-955.31361328 912.20818359 -955.31361328 912.20818359 -956.1875 911.5 C-956.1875 910.84 -956.1875 910.18 -956.1875 909.5 C-956.73535156 909.27441406 -957.28320312 909.04882812 -957.84765625 908.81640625 C-982.31525409 895.0508295 -998.65430238 858.73493345 -1006.16943359 833.13134766 C-1008.70859708 824.04725614 -1010.6372284 814.80261141 -1012.1875 805.5 C-1012.3632959 804.47600098 -1012.5390918 803.45200195 -1012.72021484 802.39697266 C-1013.30557737 797.51528166 -1013.38760062 792.70556025 -1013.42578125 787.79296875 C-1013.4355751 786.76302795 -1013.44536896 785.73308716 -1013.45545959 784.67193604 C-1013.7736766 742.54214265 -1013.7736766 742.54214265 -1009.1875 722.5 C-1008.85008789 720.94418213 -1008.85008789 720.94418213 -1008.50585938 719.35693359 C-1005.59074806 705.98797613 -1002.0484296 692.81611861 -997.90673828 679.77636719 C-997.23161891 677.63963499 -996.58087172 675.49685592 -995.93359375 673.3515625 C-989.69484478 653.20530485 -981.11990706 633.06191901 -971.21386719 614.44677734 C-970.05781727 612.25402234 -968.93868575 610.04423244 -967.8203125 607.83203125 C-954.66378054 582.00264502 -939.59274174 556.71888194 -922.49121094 533.30273438 C-920.57414357 530.65186819 -918.70328875 527.96924348 -916.82788086 525.28881836 C-898.62469058 499.29641053 -878.86953956 474.34356624 -857.421875 450.94921875 C-855.46187117 448.80075301 -853.53405509 446.63116193 -851.625 444.4375 C-838.12281823 428.93961468 -823.94978549 414.08860524 -809.39624023 399.57836914 C-807.22325665 397.41082358 -805.05577637 395.237875 -802.88867188 393.06445312 C-801.47948771 391.65592873 -800.06999394 390.247714 -798.66015625 388.83984375 C-798.02666763 388.2043309 -797.39317902 387.56881805 -796.74049377 386.91404724 C-792.93591856 383.12907856 -789.01185687 379.53736089 -784.95158386 376.02827454 C-783.0103082 374.34649386 -781.12325692 372.61694885 -779.2578125 370.8515625 C-778.29041138 369.93914795 -778.29041138 369.93914795 -777.3034668 369.00830078 C-776.64644775 368.38681152 -775.98942871 367.76532227 -775.3125 367.125 C-766.74792567 359.06783145 -758.1241726 351.21570433 -748.9765625 343.8203125 C-746.11237395 341.43750018 -743.36518417 338.96155697 -740.625 336.4375 C-736.44117275 332.59242012 -732.15473781 328.96631445 -727.68359375 325.4609375 C-725.91085629 324.06827052 -724.15460327 322.65450648 -722.41015625 321.2265625 C-721.51167969 320.49179687 -720.61320312 319.75703125 -719.6875 319 C-718.8728125 318.3296875 -718.058125 317.659375 -717.21875 316.96875 C-715.1875 315.5 -715.1875 315.5 -713.1875 315.5 C-713.1875 314.84 -713.1875 314.18 -713.1875 313.5 C-711.65869141 312.07958984 -711.65869141 312.07958984 -709.5390625 310.4609375 C-708.78109375 309.88085938 -708.023125 309.30078125 -707.2421875 308.703125 C-706.44039062 308.09984375 -705.63859375 307.4965625 -704.8125 306.875 C-703.62140625 305.95847656 -703.62140625 305.95847656 -702.40625 305.0234375 C-696.44904436 300.5 -696.44904436 300.5 -694.1875 300.5 C-694.1875 299.84 -694.1875 299.18 -694.1875 298.5 C-692.34375 296.9765625 -692.34375 296.9765625 -689.6875 295.125 C-688.67816406 294.40957031 -687.66882813 293.69414062 -686.62890625 292.95703125 C-686.07348145 292.56338379 -685.51805664 292.16973633 -684.94580078 291.76416016 C-681.79830339 289.50121354 -678.71704087 287.15031016 -675.625 284.8125 C-669.79153331 280.42110832 -663.91685883 276.09088301 -658 271.8125 C-657.31284912 271.31468018 -656.62569824 270.81686035 -655.91772461 270.30395508 C-644.11437946 261.79720147 -632.04890321 253.68341611 -619.9375 245.625 C-618.84633377 244.89849747 -618.84633377 244.89849747 -617.73312378 244.15731812 C-595.67969812 229.47735061 -573.29825034 215.50606779 -550.5546875 201.91943359 C-548.95261627 200.95878568 -547.35373369 199.99280333 -545.7578125 199.02197266 C-539.6643153 195.32526704 -533.46308115 191.87677056 -527.1875 188.5 C-525.41228387 187.53603332 -523.63754007 186.57119629 -521.86328125 185.60546875 C-520.98841064 185.12956299 -520.11354004 184.65365723 -519.2121582 184.16333008 C-517.86963989 183.43279419 -517.86963989 183.43279419 -516.5 182.6875 C-515.06563599 181.90765747 -515.06563599 181.90765747 -513.60229492 181.11206055 C-508.67422461 178.4261611 -503.77216259 175.70526344 -498.90698242 172.90722656 C-491.07364951 168.41040608 -483.04261756 164.49675222 -474.85546875 160.6875 C-470.53379122 158.67468825 -466.25838293 156.58050674 -462 154.4375 C-461.42654846 154.14911758 -460.85309692 153.86073517 -460.26226807 153.56361389 C-457.06845607 151.95606185 -453.87863438 150.34189588 -450.69580078 148.71264648 C-439.39106029 142.95067836 -427.85107806 137.75835537 -416.25 132.625 C-415.25981873 132.18557068 -414.26963745 131.74614136 -413.24945068 131.293396 C-399.12981921 125.03184468 -384.96895227 118.96631445 -370.55175781 113.41699219 C-367.77020904 112.33815109 -365.00673669 111.21912469 -362.24755859 110.08447266 C-356.67045342 107.82534188 -351.06526228 105.71058458 -345.38671875 103.72265625 C-344.2851368 103.33567314 -344.2851368 103.33567314 -343.16130066 102.94087219 C-340.83732747 102.12544489 -338.51253102 101.31240573 -336.1875 100.5 C-335.0786142 100.11198212 -335.0786142 100.11198212 -333.94732666 99.71612549 C-253.54555287 71.6050894 -168.6172723 48.70017796 -68.1875 48.5 C-67.92582031 47.63246094 -67.66414062 46.76492187 -67.39453125 45.87109375 C-64.52065114 37.84469072 -59.48770482 30.16311463 -54.1875 23.5 C-53.5275 23.5 -52.8675 23.5 -52.1875 23.5 C-51.96578125 22.92894531 -51.7440625 22.35789062 -51.515625 21.76953125 C-45.43349148 11.37623838 -27.99348011 4.2319283 -17.05664062 1.09326172 C-11.41218174 -0.07386176 -5.74408924 -0.02911045 0 0 Z M-397.37353516 179.78027344 C-400.68465724 181.27549942 -404.00264504 182.75467366 -407.32421875 184.2265625 C-421.65119407 190.58488258 -435.56391209 197.5975484 -449.41137695 204.93603516 C-453.55668804 207.1302893 -457.71521754 209.2688662 -461.9375 211.3125 C-470.87874301 215.73959668 -479.47612217 220.83040015 -488.13964844 225.77099609 C-491.06670739 227.43147603 -494.00350025 229.07285908 -496.9453125 230.70703125 C-517.44528653 242.11589651 -537.10422808 254.69443342 -556.625 267.6875 C-557.37300873 268.18488678 -558.12101746 268.68227356 -558.89169312 269.19473267 C-573.08677136 278.64608683 -587.08972308 288.37288845 -600.8125 298.5 C-601.59971436 299.08048096 -602.38692871 299.66096191 -603.19799805 300.2590332 C-610.07707347 305.36219044 -616.76365235 310.68138836 -623.41552734 316.07519531 C-625.77394468 317.97154742 -628.16037048 319.83061714 -630.54858398 321.68920898 C-640.60939467 329.52202007 -650.28727266 337.72804503 -659.71484375 346.3125 C-662.37429153 348.66525001 -665.10978669 350.89778057 -667.875 353.125 C-671.65289735 356.18127651 -675.14318478 359.33133424 -678.515625 362.82421875 C-680.31320925 364.62600297 -682.19410302 366.27977256 -684.125 367.9375 C-687.70260935 371.01687362 -691.00917736 374.29881205 -694.31640625 377.6640625 C-696.1875 379.5 -696.1875 379.5 -699.25 382 C-702.35648418 384.64381633 -704.88559561 387.487412 -707.52734375 390.58203125 C-709.63156092 393.01302096 -711.88457651 395.25767976 -714.1875 397.5 C-714.93 398.2425 -715.6725 398.985 -716.4375 399.75 C-718.37718591 401.68968591 -720.3219032 403.62311986 -722.2734375 405.55078125 C-727.45232562 410.67891892 -732.59147099 415.78083209 -737.3125 421.33984375 C-739.8909664 424.31045191 -742.5730325 427.18076825 -745.25 430.0625 C-752.99408865 437.09399382 -752.99408865 437.09399382 -757.1875 445.5 C-757.8475 445.5 -758.5075 445.5 -759.1875 445.5 C-760.85531902 447.30519184 -760.85531902 447.30519184 -762.625 449.6875 C-765.82627153 453.79599107 -769.11179201 457.79689079 -772.5 461.75 C-777.73070453 467.88890073 -782.73178751 474.18594337 -787.67480469 480.55761719 C-789.29789835 482.64175747 -790.93333896 484.71580916 -792.5703125 486.7890625 C-814.76057395 514.96839105 -834.9871921 545.14048162 -852.16992188 576.63671875 C-853.18299261 578.49174655 -854.20840745 580.33958139 -855.234375 582.1875 C-860.07986635 591.00003297 -864.27804045 600.0366943 -868.23486328 609.27978516 C-869.13297979 611.37293523 -870.04791277 613.45801192 -870.96484375 615.54296875 C-879.58747345 635.4565003 -885.39987218 656.15923374 -889.1875 677.5 C-889.37296387 678.43730957 -889.55842773 679.37461914 -889.74951172 680.34033203 C-891.64188229 690.80492184 -891.58356733 701.27624028 -891.5625 711.875 C-891.56228851 712.85255249 -891.56207703 713.83010498 -891.56185913 714.83728027 C-891.5303542 729.40838321 -890.99616523 743.35088577 -887.1875 757.5 C-886.99494629 758.23412109 -886.80239258 758.96824219 -886.60400391 759.72460938 C-885.34150674 764.40333739 -883.83963367 768.9445554 -882.1875 773.5 C-881.74664063 774.72589844 -881.30578125 775.95179688 -880.8515625 777.21484375 C-872.46893291 799.28292662 -860.09908071 818.02204956 -843.1875 834.5 C-842.68734375 835.04527344 -842.1871875 835.59054687 -841.671875 836.15234375 C-829.94709527 848.61629437 -815.11119639 857.42008672 -800.1875 865.5 C-799.51783203 865.86577148 -798.84816406 866.23154297 -798.15820312 866.60839844 C-725.34437681 905.97221825 -639.67113036 903.58821103 -560.1875 892.5 C-558.37958984 892.24863281 -558.37958984 892.24863281 -556.53515625 891.9921875 C-549.06762838 890.93436242 -541.62566884 889.74653105 -534.1875 888.5 C-533.49239319 888.38418579 -532.79728638 888.26837158 -532.08111572 888.14904785 C-506.32614654 883.8543373 -480.7118279 879.00280065 -455.1875 873.5 C-454.43789001 873.33864563 -453.68828003 873.17729126 -452.91595459 873.01104736 C-416.10639823 865.06586735 -379.51563256 855.64535165 -344.1875 842.5 C-344.1875 842.17 -344.1875 841.84 -344.1875 841.5 C-350.24601511 842.13443599 -355.97251773 843.33033967 -361.875 844.8125 C-372.59895652 847.40880656 -383.29891384 849.70820734 -394.1875 851.5 C-395.2408252 851.68481934 -396.29415039 851.86963867 -397.37939453 852.06005859 C-438.81278952 859.07551945 -485.82933906 858.77685208 -527.1875 851.5 C-528.89099609 851.21914551 -528.89099609 851.21914551 -530.62890625 850.93261719 C-594.81525169 840.26559824 -658.46103198 814.45867068 -710.33056641 774.91259766 C-712.32986897 773.39169776 -714.34213136 771.88898174 -716.35546875 770.38671875 C-745.62112737 748.43167796 -772.38356672 722.61685597 -794.4375 693.375 C-794.89664795 692.7665625 -795.3557959 692.158125 -795.82885742 691.53125 C-798.80770072 687.51782886 -801.60779193 683.40157605 -804.37402344 679.23876953 C-805.08959412 678.16273468 -805.80516479 677.08669983 -806.54241943 675.97805786 C-807.08529602 675.16029877 -807.62817261 674.34253967 -808.1875 673.5 C-795.3832248 673.38413063 -782.57907441 673.29529657 -769.77438164 673.24093914 C-763.828566 673.21484971 -757.88310915 673.17946259 -751.9375 673.12280273 C-746.19922486 673.06846116 -740.46129474 673.03857454 -734.72278214 673.02561378 C-732.53389174 673.01637788 -730.34502015 672.99834219 -728.1562767 672.97134972 C-725.08928427 672.93503186 -722.02371596 672.93005593 -718.95654297 672.93237305 C-718.05239151 672.91439667 -717.14824005 672.89642029 -716.21669006 672.87789917 C-711.95242667 672.9127398 -709.10613543 673.11372878 -705.72537231 675.85578918 C-703.5432369 678.12935749 -701.54198117 680.46943717 -699.56640625 682.921875 C-696.76586662 686.12702518 -693.42464556 688.75099543 -690.1875 691.5 C-689.21039062 692.36496094 -688.23328125 693.22992187 -687.2265625 694.12109375 C-672.6051978 707.01264997 -656.75715004 718.25849653 -640.1875 728.5 C-639.49978516 728.92764648 -638.81207031 729.35529297 -638.10351562 729.79589844 C-627.84085058 736.1368622 -617.28727354 741.52194439 -606.31494141 746.52441406 C-604.44539538 747.38173629 -602.58695788 748.26319636 -600.73046875 749.1484375 C-573.38434808 762.15074393 -536.98845978 776.64300437 -506.1875 775.5 C-506.8475 775.17 -507.5075 774.84 -508.1875 774.5 C-508.1875 773.84 -508.1875 773.18 -508.1875 772.5 C-509.80073158 771.21663412 -509.80073158 771.21663412 -511.9375 769.9375 C-516.66933573 766.88304876 -521.14352832 763.57415795 -525.6328125 760.17578125 C-529.87148674 756.97292844 -534.15630594 753.83314648 -538.4375 750.6875 C-544.37612873 746.32041381 -550.29737168 741.93228623 -556.1875 737.5 C-564.33725791 731.36954261 -572.54772858 725.32289559 -580.76416016 719.28222656 C-584.74072518 716.35769254 -588.71396271 713.42864567 -592.6875 710.5 C-594.27081696 709.33331112 -595.85415031 708.16664447 -597.4375 707 C-600.60416667 704.66666667 -603.77083333 702.33333333 -606.9375 700 C-607.72116943 699.42258057 -608.50483887 698.84516113 -609.31225586 698.25024414 C-610.89648481 697.08287469 -612.48063188 695.91539412 -614.06469727 694.74780273 C-618.0086657 691.84097443 -621.95401162 688.9360552 -625.90234375 686.03515625 C-634.90124838 679.41982077 -643.8566463 672.75102885 -652.77929688 666.03320312 C-658.18155306 661.97625587 -663.63234013 657.99593746 -669.125 654.0625 C-680.33884423 646.02599556 -691.53401419 637.82942273 -702.16796875 629.03515625 C-704.03007231 627.29827955 -704.03007231 627.29827955 -706.1875 627.5 C-706.1875 626.84 -706.1875 626.18 -706.1875 625.5 C-663.6175 625.5 -621.0475 625.5 -577.1875 625.5 C-576.5275 626.82 -575.8675 628.14 -575.1875 629.5 C-573.50957577 631.84270735 -571.8074675 634.14580639 -570.0625 636.4375 C-569.54042969 637.1284375 -569.01835938 637.819375 -568.48046875 638.53125 C-566.72043164 640.85745289 -564.95474412 643.17926808 -563.1875 645.5 C-562.54844727 646.33934082 -561.90939453 647.17868164 -561.25097656 648.04345703 C-558.54414054 651.59709109 -555.83630719 655.14995808 -553.12597656 658.70092773 C-548.99566832 664.11491364 -544.88982163 669.54601566 -540.8125 675 C-536.5882065 680.64891066 -532.31441175 686.25625156 -528.00390625 691.83984375 C-523.747229 697.36146959 -519.53176998 702.91469565 -515.31079102 708.46362305 C-512.00967559 712.80188551 -508.70281734 717.13529936 -505.375 721.453125 C-504.78307861 722.22237305 -504.19115723 722.99162109 -503.58129883 723.78417969 C-502.47655601 725.21881208 -501.36975361 726.65186181 -500.26049805 728.08300781 C-498.14927364 730.82735881 -496.20421253 733.4713284 -494.45703125 736.46875 C-493.82861328 737.47421875 -493.82861328 737.47421875 -493.1875 738.5 C-492.5275 738.5 -491.8675 738.5 -491.1875 738.5 C-490.93484375 739.05429687 -490.6821875 739.60859375 -490.421875 740.1796875 C-488.98446406 742.88165617 -487.2869876 745.18451073 -485.4375 747.625 C-484.6434375 748.67300781 -483.849375 749.72101562 -483.03125 750.80078125 C-479.105567 755.92487542 -475.13306947 761.0131789 -471.14941406 766.09228516 C-467.71207713 770.4865969 -464.39546277 774.93528606 -461.1875 779.5 C-457.02360897 775.72647375 -453.93352334 771.47077 -450.67578125 766.90625 C-447.7045643 762.79130617 -444.56605938 758.80826515 -441.4375 754.8125 C-436.94171017 749.06301884 -432.4901645 743.28684956 -428.125 737.4375 C-423.97037019 731.87026833 -419.78467321 726.32872425 -415.5625 720.8125 C-414.73951416 719.73705933 -414.73951416 719.73705933 -413.89990234 718.63989258 C-411.48651048 715.48961752 -409.0688475 712.34286748 -406.63671875 709.20703125 C-401.76330644 702.91386871 -397.01137736 696.5491121 -392.3125 690.125 C-387.54949859 683.61888801 -382.66032375 677.25229175 -377.58422852 670.98828125 C-373.52374127 665.96338616 -369.63365417 660.82529835 -365.77490234 655.64453125 C-361.94773683 650.50652078 -358.08011414 645.40110732 -354.1875 640.3125 C-353.64746338 639.60561035 -353.10742676 638.8987207 -352.55102539 638.17041016 C-352.03918701 637.50187012 -351.52734863 636.83333008 -351 636.14453125 C-350.51917969 635.51627441 -350.03835938 634.88801758 -349.54296875 634.24072266 C-348.3294269 632.68226563 -347.07353007 631.15700665 -345.8125 629.63671875 C-343.9857195 627.6820839 -343.9857195 627.6820839 -344.1875 625.5 C-301.9475 625.5 -259.7075 625.5 -216.1875 625.5 C-219.48191303 629.61801629 -222.2128864 632.19339964 -226.4375 635.0625 C-227.70044352 635.94225479 -228.96211431 636.82383884 -230.22265625 637.70703125 C-231.20322998 638.39273193 -231.20322998 638.39273193 -232.20361328 639.09228516 C-235.4756953 641.41407016 -238.67432009 643.83120218 -241.875 646.25 C-250.12498547 652.4694054 -258.44011936 658.59799078 -266.76416016 664.71777344 C-270.74072518 667.64230746 -274.71396271 670.57135433 -278.6875 673.5 C-280.27081696 674.66668888 -281.85415031 675.83335553 -283.4375 677 C-284.22125 677.5775 -285.005 678.155 -285.8125 678.75 C-292.9375 684 -292.9375 684 -295.31420898 685.7512207 C-296.89189483 686.91375169 -298.46953183 688.07634897 -300.04711914 689.23901367 C-304.09145379 692.21951156 -308.13672297 695.19872758 -312.18359375 698.17578125 C-322.21195064 705.55232382 -322.21195064 705.55232382 -332.1875 713 C-341.28268313 719.84352444 -350.47105868 726.56222629 -359.64160156 733.30419922 C-362.05315476 735.07722898 -364.46426012 736.85086456 -366.875 738.625 C-367.66519531 739.20652832 -368.45539062 739.78805664 -369.26953125 740.38720703 C-374.93252752 744.56074168 -380.56136023 748.77778273 -386.17578125 753.01635742 C-389.75576875 755.70900144 -393.36373326 758.35554381 -397.0078125 760.9609375 C-398.22392212 761.83093384 -398.22392212 761.83093384 -399.46459961 762.71850586 C-401.02742407 763.83304521 -402.59317556 764.94349604 -404.16235352 766.04907227 C-408.21283705 768.93587087 -411.7909104 771.86223244 -415.1875 775.5 C-359.61288294 769.29258548 -303.67923798 747.6432893 -259.1875 713.5 C-257.61935547 712.31277344 -257.61935547 712.31277344 -256.01953125 711.1015625 C-249.74627223 706.33292564 -243.59539677 701.43797161 -237.52734375 696.41015625 C-236.0187576 695.17860596 -234.47013136 693.99383634 -232.87890625 692.87109375 C-232.32074219 692.41863281 -231.76257813 691.96617187 -231.1875 691.5 C-231.1875 690.84 -231.1875 690.18 -231.1875 689.5 C-230.6203125 689.26023437 -230.053125 689.02046875 -229.46875 688.7734375 C-226.72003825 687.23905388 -224.87769462 685.38270062 -222.6875 683.125 C-221.55828125 681.96871094 -221.55828125 681.96871094 -220.40625 680.7890625 C-219.02469246 679.3637232 -217.67446804 677.9064321 -216.37643433 676.40463257 C-209.93051086 670.79591438 -196.41784744 673.48339523 -188.26067734 673.66755295 C-183.62085969 673.75880287 -178.97999663 673.77519706 -174.33944511 673.80389977 C-170.28784661 673.8330719 -166.24009887 673.88965281 -162.18994141 674.00390625 C-145.42331942 675.24991886 -145.42331942 675.24991886 -129.78012085 671.06982422 C-126.28238129 667.71783588 -124.45078202 663.97061347 -122.92054749 659.42747498 C-121.6898756 656.19154645 -119.72574494 653.5832236 -117.75 650.75 C-86.51105028 602.20041199 -67.83616764 547.36708895 -59.1875 490.5 C-59.07277344 489.75073242 -58.95804688 489.00146484 -58.83984375 488.22949219 C-56.36108438 471.76456837 -56.00098259 455.40291823 -56.00219727 438.78735352 C-56.00002009 435.46812931 -55.98182637 432.1492435 -55.96289062 428.83007812 C-55.84056024 382.37646124 -64.90409147 335.96794453 -81.1875 292.5 C-81.4870459 291.68611816 -81.7865918 290.87223633 -82.09521484 290.03369141 C-89.57249116 269.85370629 -98.85803719 249.55882523 -110.3828125 231.359375 C-111.90734217 228.94388644 -113.29014445 226.52241669 -114.625 224 C-124.22892882 206.49659388 -137.08606633 190.63850749 -149.73193359 175.28027344 C-152.33638851 172.09481801 -154.87261771 168.85517892 -157.40625 165.61328125 C-159.53223138 163.09100948 -161.84760859 160.82586755 -164.1875 158.5 C-166.0047364 156.6609762 -167.82109644 154.82108612 -169.63671875 152.98046875 C-171.18420729 151.41826113 -172.73263704 149.85699331 -174.28149414 148.29614258 C-175.35096868 147.2165091 -176.41865639 146.13510289 -177.48461914 145.05200195 C-179.03067594 143.48181389 -180.58299228 141.91806311 -182.13671875 140.35546875 C-183.05799561 139.42371826 -183.97927246 138.49196777 -184.9284668 137.53198242 C-186.92891882 135.27708131 -186.92891882 135.27708131 -189.1875 135.5 C-189.1875 134.84 -189.1875 134.18 -189.1875 133.5 C-192.66748507 129.86366461 -192.66748507 129.86366461 -197.1875 128.5 C-197.1875 127.84 -197.1875 127.18 -197.1875 126.5 C-199.40168617 124.6084693 -201.62316984 122.82350321 -203.9375 121.0625 C-204.57171875 120.57201172 -205.2059375 120.08152344 -205.859375 119.57617188 C-207.08708115 118.62853619 -208.31809168 117.68516245 -209.55273438 116.74658203 C-210.88541466 115.7303536 -212.20286696 114.69418025 -213.515625 113.65234375 C-222.94568445 107.15265324 -375.31491621 169.81509248 -397.37353516 179.78027344 Z " fill="#2E6AFE" transform="translate(1013.1875,-0.5)"/>
<path d="M0 0 C2.17896489 0.17074099 4.359855 0.31861785 6.54199219 0.44238281 C8.02723389 0.5388208 8.02723389 0.5388208 9.54248047 0.63720703 C10.41445068 0.68562744 11.2864209 0.73404785 12.18481445 0.78393555 C14.29638672 1.25830078 14.29638672 1.25830078 16.29638672 4.25830078 C9.02808391 7.61743057 1.70404564 10.78324538 -5.70361328 13.82080078 C-33.31752067 25.25350286 -60.79176999 37.50411841 -87.42626953 51.09033203 C-90.95936964 52.89243253 -94.51508409 54.64591671 -98.07470703 56.39501953 C-111.29232811 62.90890999 -124.27249605 69.68991583 -137.05126953 77.03955078 C-142.93613671 80.41700641 -148.90911531 83.61959772 -154.89111328 86.82080078 C-165.70729187 92.63863319 -176.23824378 98.83512106 -186.70361328 105.25830078 C-188.75166942 106.50719706 -190.79985276 107.75588475 -192.84814453 109.00439453 C-216.53382013 123.47579946 -239.78974945 138.50529452 -262.68408203 154.19189453 C-265.23808396 155.93971733 -267.79693762 157.67985962 -270.35986328 159.41455078 C-279.03193172 165.29995673 -287.47955581 171.46164088 -295.89501953 177.70751953 C-299.81426806 180.61222489 -303.76540705 183.46896628 -307.73144531 186.30932617 C-315.59839591 191.94430906 -323.27447351 197.75723437 -330.84179688 203.78662109 C-333.61804717 205.98111844 -336.4227961 208.13827519 -339.22436523 210.30029297 C-351.80772881 220.02166856 -364.06532884 230.11903882 -376.17138672 240.42700195 C-379.49698158 243.25501332 -382.86733335 246.01891324 -386.26611328 248.75830078 C-391.34112799 252.88637397 -396.14376744 257.2617567 -400.93798828 261.70751953 C-403.14417275 263.74231961 -405.36993589 265.73476316 -407.64111328 267.69580078 C-411.18765231 270.77045104 -414.63519225 273.94441505 -418.07861328 277.13330078 C-419.19706134 278.16719987 -420.31555068 279.20105431 -421.43408203 280.23486328 C-423.03524808 281.71482177 -424.63583764 283.19534926 -426.23339844 284.67919922 C-427.61489698 285.96033446 -429.00282256 287.23452898 -430.39111328 288.50830078 C-431.17873047 289.23533203 -431.96634766 289.96236328 -432.77783203 290.71142578 C-434.70361328 292.25830078 -434.70361328 292.25830078 -436.70361328 292.25830078 C-435.48668796 286.12953697 -433.84350523 280.35265101 -431.64111328 274.50830078 C-431.33874756 273.69901123 -431.03638184 272.88972168 -430.72485352 272.0559082 C-425.19371139 257.45475479 -418.96874741 243.16014706 -411.76464844 229.30664062 C-410.63012294 227.11642688 -409.51648645 224.9162246 -408.40283203 222.71533203 C-402.48506318 211.12716472 -395.87254599 200.11337007 -388.70361328 189.25830078 C-388.24341797 188.5610791 -387.78322266 187.86385742 -387.30908203 187.14550781 C-377.17254063 171.89322632 -366.04020995 157.44805562 -353.95947266 143.68896484 C-352.8843752 142.46422318 -351.81667241 141.23299714 -350.75048828 140.00048828 C-349.08152247 138.07415859 -347.39577222 136.16428373 -345.70361328 134.25830078 C-344.85412109 133.29279297 -344.00462891 132.32728516 -343.12939453 131.33251953 C-342.21713977 130.30732977 -341.30438077 129.28258847 -340.39111328 128.25830078 C-339.54935547 127.30955078 -338.70759766 126.36080078 -337.84033203 125.38330078 C-335.70361328 123.25830078 -335.70361328 123.25830078 -333.70361328 123.25830078 C-332.71361328 121.27830078 -332.71361328 121.27830078 -331.70361328 119.25830078 C-331.04361328 119.25830078 -330.38361328 119.25830078 -329.70361328 119.25830078 C-328.71361328 117.27830078 -328.71361328 117.27830078 -327.70361328 115.25830078 C-327.04361328 115.25830078 -326.38361328 115.25830078 -325.70361328 115.25830078 C-325.70361328 114.59830078 -325.70361328 113.93830078 -325.70361328 113.25830078 C-324.48095703 111.98876953 -324.48095703 111.98876953 -322.64111328 110.44580078 C-319.86920241 108.0977146 -317.11037984 105.74175159 -314.39501953 103.32861328 C-306.1597249 96.03866278 -297.67232155 89.25556008 -288.78369141 82.78076172 C-286.67744143 81.23914495 -284.58836294 79.67625124 -282.50048828 78.10986328 C-271.4747709 69.9087929 -259.95860558 62.70339328 -248.13818359 55.70605469 C-246.20862356 54.55861275 -244.29330438 53.38722763 -242.38330078 52.20751953 C-225.8859341 42.13113959 -207.5802609 34.52846945 -189.70361328 27.25830078 C-188.95821289 26.95472656 -188.2128125 26.65115234 -187.44482422 26.33837891 C-148.61648551 10.76542305 -106.3314986 2.05585323 -64.70361328 -0.74169922 C-63.8713623 -0.7995459 -63.03911133 -0.85739258 -62.18164062 -0.91699219 C-41.33053608 -2.32602011 -20.82923753 -1.68692725 0 0 Z " fill="#2E6AFE" transform="translate(587.70361328125,13.74169921875)"/>
<path d="M0 0 C4.55985967 1.52569974 8.13364478 4.07854518 11.9375 6.9375 C12.59210205 7.42476563 13.2467041 7.91203125 13.92114258 8.4140625 C15.95397949 9.93423274 17.97833355 11.46501277 20 13 C20.92522461 13.70020264 20.92522461 13.70020264 21.86914062 14.41455078 C29.35608689 20.10682006 36.45726498 26.07830022 43.32421875 32.50390625 C45.57970417 34.60792842 47.86055868 36.66347411 50.1875 38.6875 C50.79980469 39.22117187 51.41210938 39.75484375 52.04296875 40.3046875 C53.52100047 41.58505829 55.00356528 42.86019881 56.48828125 44.1328125 C57.31714844 44.85210937 58.14601563 45.57140625 59 46.3125 C59.763125 46.96863281 60.52625 47.62476563 61.3125 48.30078125 C63 50 63 50 63 52 C63.59167969 52.25394531 64.18335938 52.50789063 64.79296875 52.76953125 C67.2430973 54.13553212 68.5359582 55.52936211 70.3125 57.6875 C72.61469986 60.41185164 74.9492996 63.00661871 77.5 65.5 C81.18833327 69.13815186 84.87105996 72.86295162 88 77 C88 77.66 88 78.32 88 79 C88.66 79 89.32 79 90 79 C91.74945402 81.02584346 93.38314529 83.05918274 95 85.1875 C95.48911865 85.82244385 95.9782373 86.4573877 96.48217773 87.11157227 C97.49813611 88.43128598 98.51169885 89.75284712 99.52294922 91.07617188 C100.86766144 92.82763176 102.22789553 94.56498147 103.59765625 96.296875 C108.15325961 102.10147897 112.48847104 108.01349786 116.625 114.125 C117.06336182 114.76493896 117.50172363 115.40487793 117.95336914 116.06420898 C121 120.64060609 121 120.64060609 121 124 C119.18781684 124.52193468 117.37521231 125.04240607 115.5625 125.5625 C114.94544189 125.74031006 114.32838379 125.91812012 113.69262695 126.10131836 C109.69204953 127.24850412 105.68366084 128.35875795 101.6640625 129.4375 C69.67421783 138.08572248 37.46365713 148.46536178 8.00585938 163.85424805 C4.09714456 165.82172547 2.17268409 166.15784752 -2 165 C-4.21183219 164.11313684 -6.40153302 163.17026508 -8.57421875 162.19140625 C-9.88100576 161.608098 -11.18789488 161.02501847 -12.49487305 160.44213867 C-13.17786469 160.13553314 -13.86085632 159.82892761 -14.56454468 159.51303101 C-47.01956959 144.9816336 -80.05427084 133.77861177 -114.6628418 125.61328125 C-117 125 -117 125 -119 124 C-117.37517116 119.04814069 -114.51138042 115.18541977 -111.5 111 C-110.69477905 109.87223145 -110.69477905 109.87223145 -109.87329102 108.72167969 C-99.27087777 93.94949617 -87.83470302 80.02519289 -75.4765625 66.6953125 C-73.47653648 64.51862803 -71.53801694 62.31477118 -69.625 60.0625 C-62.70214508 52.08870565 -55.05221119 44.55026032 -47 37.72265625 C-44.56610869 35.62627721 -42.22865575 33.4360262 -39.875 31.25 C-28.21343118 20.6427648 -15.3610214 11.49684714 -2.63549805 2.22412109 C-1.05205448 1.09951828 -1.05205448 1.09951828 0 0 Z " fill="#2E6AFE" transform="translate(551,370)"/>
<path d="M0 0 C-0.28742981 1.90220642 -0.28742981 1.90220642 -1 4 C-3.6963093 5.2404455 -6.19723531 6.1806011 -9.01171875 7.06640625 C-9.83926666 7.34168655 -10.66681458 7.61696686 -11.5194397 7.90058899 C-13.30543986 8.49294207 -15.09388946 9.07794926 -16.88442993 9.65643311 C-20.64869339 10.87319702 -24.40066694 12.12579446 -28.15342712 13.37750244 C-30.05053638 14.01018151 -31.94821518 14.64115524 -33.84645081 15.27044678 C-53.48431878 21.79243271 -72.88942286 29.06635675 -92 37 C-93.45140381 37.60231445 -93.45140381 37.60231445 -94.93212891 38.21679688 C-111.73835656 45.21610258 -128.39434587 52.53897504 -145 60 C-146.01175293 60.45294434 -147.02350586 60.90588867 -148.06591797 61.37255859 C-163.54478796 68.30678609 -178.69968676 75.66747853 -193.66113281 83.65356445 C-198.25733315 86.10058653 -202.89069142 88.45130693 -207.5625 90.75 C-225.84160057 99.80228824 -243.54953142 109.91617826 -261.10351562 120.29003906 C-263.89328719 121.93700131 -266.68801277 123.57519645 -269.484375 125.2109375 C-295.24209816 140.30450144 -320.27617771 156.28171937 -345 173 C-346.01900391 173.68852051 -347.03800781 174.37704102 -348.08789062 175.08642578 C-358.16641562 181.90900534 -368.13755221 188.86888174 -378 196 C-378.90492188 196.65097656 -379.80984375 197.30195313 -380.7421875 197.97265625 C-393.33868433 207.07427933 -405.72994533 216.46364954 -418 226 C-418.54833496 226.42603516 -419.09666992 226.85207031 -419.66162109 227.29101562 C-427.99370638 233.77606327 -436.22185135 240.38440783 -444.40625 247.0546875 C-445.01082031 247.54678711 -445.61539063 248.03888672 -446.23828125 248.54589844 C-447.41302741 249.51551986 -448.57722313 250.49806669 -449.73046875 251.49316406 C-453.80165144 255 -453.80165144 255 -456 255 C-456 255.66 -456 256.32 -456 257 C-457.66015625 258.48828125 -457.66015625 258.48828125 -460.0625 260.3125 C-470.61058485 268.54806271 -480.55118906 277.51065678 -490.375 286.58984375 C-492.53614429 288.57410867 -494.71839708 290.5189006 -496.9375 292.4375 C-504.63552765 299.12093405 -512.16232989 306.03838587 -519.29272461 313.32519531 C-520.97687928 314.97731902 -522.72143247 316.50066511 -524.51953125 318.02734375 C-529.87913414 322.69110187 -534.86384523 327.71790726 -539.875 332.75 C-540.83316574 333.70459534 -541.79149813 334.65902343 -542.75 335.61328125 C-543.65492188 336.51949219 -544.55984375 337.42570312 -545.4921875 338.359375 C-546.31058105 339.17889648 -547.12897461 339.99841797 -547.97216797 340.84277344 C-550.13786733 343.02727192 -550.13786733 343.02727192 -552 346 C-552.66 346 -553.32 346 -554 346 C-554.20238281 346.53109375 -554.40476562 347.0621875 -554.61328125 347.609375 C-556.6044684 351.04206947 -559.34447077 353.50927524 -562.1875 356.25 C-566.54484914 360.51564702 -570.74341992 364.8061583 -574.6328125 369.51171875 C-576 371 -576 371 -579 373 C-578.91892198 369.10332753 -578.80609388 365.20819696 -578.6875 361.3125 C-578.66494141 360.20970703 -578.64238281 359.10691406 -578.61914062 357.97070312 C-578.58369141 356.90400391 -578.54824219 355.83730469 -578.51171875 354.73828125 C-578.48553467 353.75899658 -578.45935059 352.77971191 -578.43237305 351.77075195 C-577.65038374 346.7595737 -574.83140491 343.58983467 -571.25 340.1875 C-568.67323077 337.73118949 -566.29093852 335.19572039 -563.98046875 332.4921875 C-559.44682891 327.26801332 -554.55538744 322.40542167 -549.6574707 317.52709961 C-548.06541034 315.94040054 -546.4787701 314.34842258 -544.89257812 312.75585938 C-539.93755981 307.79794073 -534.93815231 302.94680626 -529.60717773 298.38891602 C-527.63641894 296.68579483 -525.80871127 294.8733081 -524 293 C-520.74402449 289.69285002 -517.34773259 286.62755188 -513.82421875 283.609375 C-512.17528084 282.15463749 -510.64510131 280.64946794 -509.125 279.0625 C-507 277 -507 277 -505 277 C-504.67 276.01 -504.34 275.02 -504 274 C-502.44996996 272.60410053 -500.83365761 271.28112981 -499.1875 270 C-494.97012121 266.63919103 -490.94071094 263.17958337 -487 259.5 C-482.4422595 255.26263991 -477.7409 251.26672275 -472.89453125 247.36328125 C-469.65022044 244.7144175 -466.48063255 241.98895313 -463.3125 239.25 C-451.00117794 228.64665593 -438.29351018 218.58948879 -425.34375 208.78027344 C-422.80671146 206.85318125 -420.27782225 204.91572643 -417.75 202.9765625 C-407.95502105 195.46989937 -398.11617453 188.06921879 -388 181 C-387.2687793 180.48767822 -386.53755859 179.97535645 -385.78417969 179.44750977 C-353.86730222 157.08864457 -353.86730222 157.08864457 -343 150 C-342.42282227 149.62166016 -341.84564453 149.24332031 -341.25097656 148.85351562 C-312.93326842 130.30505281 -284.1095348 112.39780615 -254.4609375 96.05078125 C-250.00578901 93.58680896 -245.62920315 91.01458608 -241.28198242 88.36523438 C-236.9347664 85.76443925 -232.46668478 83.38774631 -228 81 C-227.06559082 80.49895752 -227.06559082 80.49895752 -226.11230469 79.98779297 C-211.93317479 72.39256267 -197.60360765 65.1859032 -183.04492188 58.34667969 C-178.81314308 56.35335186 -174.61392461 54.31591573 -170.45043945 52.18383789 C-157.55572081 45.58730201 -144.2503554 39.83780514 -131 34 C-130.04931641 33.58073242 -129.09863281 33.16146484 -128.11914062 32.72949219 C-113.44171391 26.28265547 -98.55639008 20.35651706 -83.65356445 14.45483398 C-81.18959068 13.47369 -78.72994436 12.48571679 -76.27416992 11.48461914 C-67.62508459 7.9677021 -58.90968743 4.80513701 -50.0625 1.8125 C-47.57388281 0.96583055 -45.08559198 0.1182011 -42.59765625 -0.73046875 C-41.44934326 -1.12097412 -40.30103027 -1.51147949 -39.11791992 -1.91381836 C-36.53105874 -2.81499645 -33.97949532 -3.76616237 -31.4296875 -4.765625 C-20.34442317 -8.75531011 -10.36307938 -4.08205706 0 0 Z " fill="#2E6AFE" transform="translate(710,42)"/>
<path d="M0 0 C1.47894066 0.51389311 2.93730069 1.08837918 4.37890625 1.69921875 C5.30251953 2.08432617 6.22613281 2.46943359 7.17773438 2.86621094 C10.41855243 4.27647156 13.61823548 5.75732755 16.81640625 7.26171875 C17.96568604 7.79748535 19.11496582 8.33325195 20.29907227 8.88525391 C28.88807402 12.92140502 37.32815562 17.17559228 45.64355469 21.74707031 C47.28120472 22.64561211 48.92746979 23.5284007 50.57421875 24.41015625 C53.19084671 25.81472221 55.78854735 27.24691917 58.37890625 28.69921875 C59.18585938 29.14007813 59.9928125 29.5809375 60.82421875 30.03515625 C61.93410156 30.67324219 61.93410156 30.67324219 63.06640625 31.32421875 C64.03126953 31.86949219 64.03126953 31.86949219 65.015625 32.42578125 C65.69044922 33.05613281 65.69044922 33.05613281 66.37890625 33.69921875 C66.37890625 35.01921875 66.37890625 36.33921875 66.37890625 37.69921875 C64.04505734 39.71178456 61.77351826 41.44898673 59.25390625 43.19921875 C53.628576 47.2545288 48.18057205 51.40366441 42.94140625 55.94921875 C42.3685791 56.44518555 41.79575195 56.94115234 41.20556641 57.45214844 C37.0989139 61.03071762 33.04990583 64.67265523 29.05078125 68.37109375 C27.37890625 69.69921875 27.37890625 69.69921875 25.37890625 69.69921875 C24.88390625 71.18421875 24.88390625 71.18421875 24.37890625 72.69921875 C22.89819336 74.16308594 22.89819336 74.16308594 20.96875 75.74609375 C15.69753339 80.22234185 10.83097776 85.06317253 5.94140625 89.94921875 C5.05130859 90.82707031 4.16121094 91.70492187 3.24414062 92.609375 C-2.04956186 97.89147697 -6.94034959 103.3369128 -11.59033203 109.19482422 C-13.65892525 111.74587365 -15.82835033 114.16401257 -18.05859375 116.57421875 C-31.88020282 131.8042474 -43.77180304 149.26185746 -54.62109375 166.69921875 C-67.65597581 164.88667598 -80.65137931 162.93209999 -93.62109375 160.69921875 C-92.43374021 152.44633353 -90.66369871 144.5944968 -88.18359375 136.63671875 C-87.83796387 135.52546631 -87.49233398 134.41421387 -87.13623047 133.26928711 C-80.84089151 113.55871619 -72.76527653 94.72097611 -62.62109375 76.69921875 C-61.61712028 74.88415177 -60.61321681 73.06904606 -59.609375 71.25390625 C-54.43248065 61.97145159 -49.16707448 53.08708474 -42.62109375 44.69921875 C-41.0982589 42.65904454 -39.57749657 40.61732204 -38.05859375 38.57421875 C-36.58036274 36.61517904 -35.10123051 34.65681898 -33.62109375 32.69921875 C-32.94304687 31.78914063 -32.265 30.8790625 -31.56640625 29.94140625 C-30.94507813 29.11898438 -30.32375 28.2965625 -29.68359375 27.44921875 C-28.86568359 26.35867188 -28.86568359 26.35867188 -28.03125 25.24609375 C-27.56589844 24.735625 -27.10054688 24.22515625 -26.62109375 23.69921875 C-25.96109375 23.69921875 -25.30109375 23.69921875 -24.62109375 23.69921875 C-24.35296875 23.12171875 -24.08484375 22.54421875 -23.80859375 21.94921875 C-22.59180186 19.64371832 -21.31775496 17.67865683 -19.62109375 15.69921875 C-18.96109375 15.69921875 -18.30109375 15.69921875 -17.62109375 15.69921875 C-17.40710938 15.17070312 -17.193125 14.6421875 -16.97265625 14.09765625 C-15.0898661 10.75651997 -12.617226 8.0884401 -9.99609375 5.32421875 C-9.49980469 4.75316406 -9.00351562 4.18210937 -8.4921875 3.59375 C-5.51193414 0.47699648 -4.45943296 -0.37041676 0 0 Z " fill="#2E6AFE" transform="translate(464.62109375,322.30078125)"/>
<path d="M0 0 C3.41624858 2.63123827 6.11800714 5.67288826 8.87890625 8.96875 C10.68205614 11.05619782 12.57955288 12.95880556 14.5625 14.875 C19.34633543 19.61301325 23.55040386 24.75877445 27.6875 30.0625 C28.14672852 30.65063477 28.60595703 31.23876953 29.07910156 31.84472656 C54.3553528 64.42488451 88.25124627 116.35871989 87.6875 159.0625 C82.75844305 159.92019012 77.82883344 160.77460233 72.89868164 161.62597656 C71.22144204 161.91609018 69.54435724 162.20710026 67.86743164 162.49902344 C65.45759538 162.91837346 63.04722152 163.33450063 60.63671875 163.75 C59.88662033 163.88124268 59.13652191 164.01248535 58.36369324 164.14770508 C55.42988121 164.65080697 52.67050255 165.0625 49.6875 165.0625 C48.11064717 162.98997633 46.74228161 160.95649053 45.375 158.75 C36.6785034 145.22321133 27.01374664 132.38358974 16.6875 120.0625 C15.24996261 118.27086333 13.81246368 116.4791958 12.375 114.6875 C8.29999773 109.68044934 3.96187168 104.95980704 -0.50317383 100.30126953 C-4.3125 96.27442693 -4.3125 96.27442693 -4.3125 94.0625 C-5.7975 93.5675 -5.7975 93.5675 -7.3125 93.0625 C-8.8203125 91.53125 -8.8203125 91.53125 -10.4375 89.5625 C-15.1986848 83.95038005 -20.16290643 78.16222904 -26.3125 74.0625 C-26.3125 73.4025 -26.3125 72.7425 -26.3125 72.0625 C-26.84101562 71.85496094 -27.36953125 71.64742188 -27.9140625 71.43359375 C-31.30001233 69.49797748 -33.90186558 66.81700615 -36.6875 64.125 C-41.39781088 59.66331635 -46.18513542 55.41440126 -51.3125 51.4375 C-51.87904297 50.99801025 -52.44558594 50.55852051 -53.02929688 50.10571289 C-55.43993215 48.24768511 -57.86115938 46.40407315 -60.28808594 44.56738281 C-61.61930494 43.55849287 -62.94782108 42.54602532 -64.2734375 41.52978516 C-65.52482294 40.57049606 -66.78243784 39.61926506 -68.046875 38.67724609 C-69.52489997 37.54190837 -70.92697905 36.30904773 -72.3125 35.0625 C-72.3125 34.0725 -72.3125 33.0825 -72.3125 32.0625 C-8.46894601 -4.95353446 -8.46894601 -4.95353446 0 0 Z " fill="#2E6AFE" transform="translate(645.3125,323.9375)"/>
<path d="M0 0 C1.26058228 0.23505249 1.26058228 0.23505249 2.54663086 0.47485352 C4.94011485 0.95819647 7.3121758 1.49713688 9.6875 2.0625 C10.49638672 2.24876953 11.30527344 2.43503906 12.13867188 2.62695312 C14.09395089 3.07817136 16.04721217 3.53811949 18 4 C17.45214844 5.81054687 17.45214844 5.81054687 16 8 C13.57014852 9.19570104 11.30459754 10.13844346 8.765625 11.03125 C8.02949982 11.30329758 7.29337463 11.57534515 6.53494263 11.8556366 C4.94437358 12.44195094 3.35145997 13.02193531 1.75653076 13.59628296 C-1.64543046 14.82284294 -5.03442008 16.08350349 -8.42459106 17.34220886 C-10.1521071 17.98324921 -11.88020039 18.622736 -13.6088562 19.26069641 C-49.30470607 32.4352134 -84.18417563 47.91074875 -118.32128906 64.6953125 C-121.5017038 66.24435883 -124.70483925 67.73916723 -127.91577148 69.22363281 C-136.7734524 73.31993412 -145.39356599 77.80444877 -153.99902344 82.40380859 C-156.82723036 83.90810544 -159.66151791 85.40006107 -162.49833679 86.88801575 C-178.62878026 95.34995096 -194.57165194 104.02256161 -210.22363281 113.35009766 C-212.98285775 114.98981293 -215.75139 116.61254028 -218.5234375 118.23046875 C-239.05045016 130.23256192 -259.14189291 142.92410546 -279 156 C-279.66257812 156.43618652 -280.32515625 156.87237305 -281.0078125 157.32177734 C-319.74341997 182.87651838 -357.25159466 210.16415479 -393.19140625 239.5234375 C-394.7923548 240.83047541 -396.39597976 242.13423356 -398 243.4375 C-404.51462724 248.74010357 -410.93377775 254.14895535 -417.33398438 259.58837891 C-418.99432734 260.99519354 -420.66026261 262.39508056 -422.328125 263.79296875 C-428.51914944 268.98886026 -434.58088265 274.28266126 -440.53515625 279.75 C-442.58115954 281.61766703 -444.65017157 283.44369597 -446.75 285.25 C-452.64749895 290.38034462 -458.30176104 295.78044666 -464 301.12939453 C-465.89898013 302.90551584 -467.80701874 304.6712165 -469.71875 306.43359375 C-475.94800359 312.1968285 -482.0752133 318.04035476 -488.0546875 324.0625 C-488.83776276 324.85050743 -488.83776276 324.85050743 -489.63665771 325.6544342 C-492.25235045 328.2895534 -494.86035369 330.93179497 -497.45898438 333.58374023 C-498.41786634 334.55462589 -499.37684612 335.52541497 -500.3359375 336.49609375 C-501.18720215 337.36419678 -502.0384668 338.2322998 -502.91552734 339.12670898 C-505 341 -505 341 -507 341 C-506.03959447 322.61982528 -502.2090732 312.84211082 -489.25 300.0625 C-488.38117188 299.19431641 -487.51234375 298.32613281 -486.6171875 297.43164062 C-482.15542593 293.0000261 -477.62716191 288.71017853 -472.85839844 284.61108398 C-469.831536 281.98703443 -466.92203369 279.23951006 -464 276.5 C-455.95729891 269.0091857 -455.95729891 269.0091857 -452.25 265.6875 C-451.65703125 265.15511719 -451.0640625 264.62273437 -450.453125 264.07421875 C-449 263 -449 263 -447 263 C-446.67 262.01 -446.34 261.02 -446 260 C-443.98828125 258.16015625 -443.98828125 258.16015625 -441.3125 256.0625 C-436.92262101 252.55963646 -432.6208258 248.98828999 -428.375 245.3125 C-420.94277904 238.90192244 -413.38218725 232.64834654 -405.77294922 226.44921875 C-404.21518727 225.17589529 -402.67091784 223.88610257 -401.12890625 222.59375 C-399 221 -399 221 -397 221 C-397 220.34 -397 219.68 -397 219 C-394.68164471 217.12947418 -392.35006478 215.36700963 -389.9375 213.625 C-384.31187863 209.49386062 -378.79002866 205.27846924 -373.375 200.875 C-367.06425589 195.77197906 -360.56304199 191.02254522 -353.92333984 186.35986328 C-350.26052257 183.77013338 -346.63282643 181.13154725 -343 178.5 C-340.00299808 176.3291511 -337.0022942 174.16352342 -334 172 C-332.46243042 170.88709595 -332.46243042 170.88709595 -330.89379883 169.75170898 C-321.96310365 163.31025798 -312.86277782 157.14903912 -303.6875 151.0625 C-302.2159464 150.0842023 -300.74442978 149.10584896 -299.27294922 148.12744141 C-289.56315367 141.67664018 -279.83172834 135.2638026 -270 129 C-269.2997168 128.55108398 -268.59943359 128.10216797 -267.87792969 127.63964844 C-238.01122231 108.50036114 -207.308814 90.66855835 -176 74 C-175.1322998 73.53722656 -174.26459961 73.07445313 -173.37060547 72.59765625 C-163.2886254 67.22889974 -153.14001194 62.01283486 -142.90332031 56.94580078 C-141.06469495 56.03214831 -139.23078895 55.10975504 -137.3984375 54.18359375 C-133.27595319 52.10141969 -129.139559 50.04798352 -125 48 C-124.11666992 47.56123535 -123.23333984 47.1224707 -122.32324219 46.67041016 C-107.40337885 39.28600935 -92.30073818 32.38482035 -77.0625 25.6875 C-76.21366241 25.31345032 -75.36482483 24.93940063 -74.49026489 24.55401611 C-63.60770516 19.76590569 -52.65563133 15.20094124 -41.59985352 10.82788086 C-37.63099285 9.25749995 -33.6866461 7.63613955 -29.74609375 5.99609375 C-27.6435163 5.14252153 -25.54066168 4.28963167 -23.4375 3.4375 C-22.37982422 2.98826172 -21.32214844 2.53902344 -20.23242188 2.07617188 C-12.99825303 -0.81304387 -7.64135133 -1.4801873 0 0 Z " fill="#2E6AFE" transform="translate(644,22)"/>
<path d="M0 0 C0.92403122 -0.00095673 1.84806244 -0.00191345 2.8000946 -0.00289917 C4.7541816 -0.00357751 6.70827089 -0.00174741 8.66235352 0.00244141 C11.58940993 0.00772707 14.51630812 0.00251977 17.44335938 -0.00390625 C26.42922063 -0.00752317 35.3931057 0.09148325 44.3671875 0.578125 C45.44834587 0.63623856 45.44834587 0.63623856 46.55134583 0.69552612 C50.53172632 0.93911692 54.40398263 1.40391092 58.32421875 2.1328125 C58.23333984 2.99519531 58.14246094 3.85757812 58.04882812 4.74609375 C54.94937955 34.85048141 54.16709384 64.08297917 58.04882812 94.18383789 C58.35977526 97.51356351 58.3680008 100.79052189 58.32421875 104.1328125 C49.98804487 104.43492187 41.65417868 104.66542455 33.31387329 104.80637074 C29.44018416 104.87404704 25.57025467 104.96568064 21.69873047 105.11352539 C17.95713952 105.2555029 14.21914462 105.33263624 10.47506714 105.36621666 C9.05206631 105.39011833 7.62924881 105.43680928 6.20779419 105.50730324 C1.63286497 105.72502171 -2.33975976 105.6709501 -6.67578125 104.1328125 C-10.35593655 100.16828428 -12.46182872 96.08077083 -14.67578125 91.1328125 C-15.06755554 90.38044815 -15.45932983 89.6280838 -15.86297607 88.85292053 C-27.24605591 66.98125658 -30.0594602 39.27408297 -22.87109375 15.625 C-22.47664063 14.47257813 -22.0821875 13.32015625 -21.67578125 12.1328125 C-21.30195313 11.00101562 -20.928125 9.86921875 -20.54296875 8.703125 C-18.41059986 3.15331723 -18.41059986 3.15331723 -16.67578125 1.1328125 C-11.12799067 0.00228863 -5.64510808 -0.01313675 0 0 Z " fill="#2E6AFE" transform="translate(287.67578125,499.8671875)"/>
<path d="M0 0 C2.61667534 0.00541806 5.23318292 -0.00001838 7.84985352 -0.00634766 C16.33420663 -0.00935299 24.7221431 0.0783239 33.15649414 1.13037109 C43.62284321 23.56282796 46.55727042 50.49179769 38.15649414 74.13037109 C29.61703341 97.1286307 29.61703341 97.1286307 21.15649414 104.13037109 C18.28375244 104.61138916 18.28375244 104.61138916 14.91918945 104.58447266 C13.6581842 104.58417053 12.39717896 104.58386841 11.09796143 104.58355713 C9.72684088 104.56313214 8.35572681 104.54226819 6.98461914 104.52099609 C5.5778687 104.51353226 4.17110783 104.50784 2.76434326 104.50384521 C-0.93158868 104.4885997 -4.62688812 104.4493284 -8.3225708 104.4050293 C-12.0963892 104.36405253 -15.87031018 104.34582914 -19.64428711 104.32568359 C-27.0443145 104.28283208 -34.44382143 104.21459514 -41.84350586 104.13037109 C-41.33643342 95.59340044 -40.77817486 87.06931877 -40.04370117 78.54833984 C-38.32424276 58.22165681 -38.80608177 38.61275156 -40.57348633 18.30224609 C-41.03215114 12.91438598 -41.4366978 7.52235729 -41.84350586 2.13037109 C-37.1543692 1.25543282 -32.50254367 0.8283607 -27.74584961 0.57568359 C-26.96596176 0.533638 -26.18607391 0.49159241 -25.3825531 0.44827271 C-16.92293841 0.03030289 -8.4684064 -0.02083643 0 0 Z " fill="#2E6AFE" transform="translate(800.843505859375,499.86962890625)"/>
<path d="M0 0 C5.96403365 0.10267197 11.66778313 1.95623092 17.3828125 3.515625 C18.02265076 3.68835938 18.66248901 3.86109375 19.32171631 4.0390625 C43.70239065 10.64245775 68.05177563 18.25079937 91.2578125 28.265625 C92.69107966 28.87316688 94.12467115 29.47994422 95.55859375 30.0859375 C98.79971388 31.46091095 102.03177083 32.85556705 105.2578125 34.265625 C102.01655039 39.02336449 98.54629633 41.02735507 93.5703125 43.578125 C76.3667988 52.77149914 59.87282594 63.57787476 44.2578125 75.265625 C43.5889502 75.76610352 42.92008789 76.26658203 42.23095703 76.78222656 C37.98875089 79.9611156 37.98875089 79.9611156 33.75952148 83.15722656 C33.12989502 83.63385742 32.50026855 84.11048828 31.8515625 84.6015625 C31.30177734 85.01970215 30.75199219 85.4378418 30.18554688 85.86865234 C29.54939453 86.32965332 28.91324219 86.7906543 28.2578125 87.265625 C27.36516693 87.94507172 26.47252136 88.62451843 25.55282593 89.32455444 C21.83730861 91.51334105 19.87708089 91.75293448 15.60986328 91.71972656 C14.30896759 91.71942444 13.0080719 91.71912231 11.66775513 91.71881104 C10.26287208 91.69838897 8.85799539 91.67752506 7.453125 91.65625 C6.00439233 91.64878195 4.5556495 91.64309168 3.10690308 91.63909912 C-0.69092097 91.62388685 -4.48812507 91.58464443 -8.28570557 91.5402832 C-12.16694759 91.49923444 -16.04829059 91.48106772 -19.9296875 91.4609375 C-27.53413562 91.41814471 -35.13807442 91.34994837 -42.7421875 91.265625 C-42.43937228 89.85092108 -42.13330984 88.43691203 -41.82592773 87.02319336 C-41.65584702 86.23569199 -41.4857663 85.44819061 -41.31053162 84.63682556 C-40.42122724 80.9265399 -39.14675225 77.39528508 -37.8046875 73.828125 C-37.35887329 72.63352661 -37.35887329 72.63352661 -36.90405273 71.41479492 C-10.21450822 0.98943954 -10.21450822 0.98943954 0 0 Z " fill="#2E6AFE" transform="translate(421.7421875,512.734375)"/>
<path d="M0 0 C39.39036678 70.15749411 39.39036678 70.15749411 39 91 C30.76728195 91.25675308 22.53628007 91.45124101 14.30052757 91.56993389 C10.47461311 91.62695197 6.65146854 91.70404279 2.82714844 91.82983398 C-26.63151352 92.77392126 -26.63151352 92.77392126 -34.79296875 85.66796875 C-36.64038538 83.85021614 -38.3000035 81.96420068 -40 80 C-41.52571133 78.82559113 -43.08219775 77.68803148 -44.6875 76.625 C-45.47898437 76.08359375 -46.27046875 75.5421875 -47.0859375 74.984375 C-48.04757812 74.32953125 -49.00921875 73.6746875 -50 73 C-51.36777835 72.04772309 -52.73490451 71.09450909 -54.1015625 70.140625 C-69.36219978 59.53459542 -85.03384611 49.60787695 -101.28515625 40.5859375 C-103.68720692 39.18272516 -105.89930677 37.82362338 -108 36 C-108 35.34 -108 34.68 -108 34 C-77.75950594 20.1694211 -45.69672035 9.36268396 -13.375 1.5625 C-12.70694336 1.39854736 -12.03888672 1.23459473 -11.35058594 1.06567383 C-7.49991798 0.17564218 -3.94730772 -0.15181953 0 0 Z " fill="#2E6AFE" transform="translate(686,513)"/>
<path d="M0 0 C0.31932434 1.60282217 0.62994514 3.2073779 0.9375 4.8125 C1.11152344 5.70582031 1.28554688 6.59914063 1.46484375 7.51953125 C2.80999923 16.26795122 3.14260378 24.95339009 3.09765625 33.79296875 C3.0962413 34.86501053 3.09482635 35.93705231 3.09336853 37.0415802 C3.08782702 40.42358338 3.07528587 43.80551726 3.0625 47.1875 C3.05747743 49.49804591 3.05291585 51.80859287 3.04882812 54.11914062 C3.03787684 59.74611689 3.02119821 65.37305349 3 71 C2.01 71.495 2.01 71.495 1 72 C-2.49278221 65.29419725 -5.44517278 58.38452116 -8.40112305 51.43054199 C-13.13024431 40.32723989 -18.08313778 29.5297714 -24 19 C-25.70361923 15.68449488 -27.35599574 12.3453575 -29 9 C-29.66611585 7.6663914 -30.33270749 6.33302023 -31 5 C-24.713926 2.61787891 -18.81014656 1.38716954 -12.125 0.8125 C-10.86429688 0.6897168 -10.86429688 0.6897168 -9.578125 0.56445312 C-6.36599664 0.25914699 -3.22878085 0 0 0 Z " fill="#2E6AFE" transform="translate(738,504)"/>
<path d="M0 0 C10.30102482 0.4237301 19.94296611 1.73181789 30 4 C28.56574116 8.70842549 26.61428723 13.00776832 24.375 17.375 C23.84821655 18.41720703 23.84821655 18.41720703 23.31079102 19.48046875 C21.86613238 22.33824746 20.41242668 25.19137326 18.95751953 28.04394531 C13.35524116 39.04390179 8.10910443 50.15561999 3.55859375 61.63671875 C3.12675781 62.72597656 2.69492187 63.81523438 2.25 64.9375 C1.88390625 65.89527344 1.5178125 66.85304688 1.140625 67.83984375 C0 70 0 70 -3 71 C-6.21970122 12.43940245 -6.21970122 12.43940245 0 0 Z " fill="#2E6AFE" transform="translate(367,504)"/>
</svg>
